#!OML:ASF X:\für Bonn\!DataBase\2005_08_11_Bastian_Final\c3d\Bastian.ASF
:FULLY-SPECIFIED
:DEGREES
340
root 22.5832 16.6714 -1.96756 363.74 -62.0391 22.9164
lowerback 71.0691 -2.32539 11.4447
upperback 14.0676 2.78601 -1.07068
thorax -4.48899 1.19924 -6.88039
lowerneck -2.00951 -10.1321 7.5525
upperneck -31.0782 -10.8325 15.1567
head -9.11687 -8.29843 4.8884
rclavicle 1.52667e-013 -1.19271e-014
rhumerus 59.7336 6.0994 -41.1985
rradius 21.3264
rwrist -8.20057
rhand -35.5887 -9.25666
rfingers 7.12502
rthumb -8.71295 -39.0568
lclavicle 1.52667e-013 -1.19271e-014
lhumerus -12.5104 -29.0652 87.2791
lradius 41.327
lwrist 30.6008
lhand -11.3959 -14.913
lfingers 7.12502
lthumb 14.6391 14.5503
rfemur -58.6594 -14.4822 15.7407
rtibia 60.9132
rfoot -18.6199 -9.24324
rtoes 0.309211
lfemur -53.6182 -5.35057 -33.8433
ltibia 39.3095
lfoot 0.78596 -17.0825
ltoes -9.55672
341
root 22.573 16.7041 -1.96564 363.848 -62.1661 22.2765
lowerback 70.7243 -2.08488 11.3225
upperback 14.3372 2.87254 -0.959758
thorax -4.21077 1.2321 -6.74634
lowerneck -2.63183 -10.1067 7.40789
upperneck -31.009 -10.9224 15.1614
head -8.95985 -8.32177 4.86255
rclavicle -5.725e-014 3.97569e-014
rhumerus 59.5025 7.1204 -40.315
rradius 21.8916
rwrist -9.2189
rhand -35.3433 -9.23589
rfingers 7.12502
rthumb -8.47612 -39.0458
lclavicle -5.725e-014 3.97569e-014
lhumerus -11.9266 -29.1153 87.1823
lradius 40.9315
lwrist 30.5964
lhand -11.5542 -14.6001
lfingers 7.12502
lthumb 14.4865 14.8742
rfemur -57.7581 -14.1979 15.9042
rtibia 60.3489
rfoot -18.5266 -9.33376
rtoes 0.261858
lfemur -52.9026 -4.99353 -33.5915
ltibia 38.9259
lfoot 0.866859 -17.1802
ltoes -9.51125
342
root 22.562 16.7349 -1.96345 363.958 -62.2705 21.635
lowerback 70.3311 -1.85058 11.2024
upperback 14.6184 2.95409 -0.820507
thorax -3.92318 1.25966 -6.57966
lowerneck -3.23184 -10.0886 7.17668
upperneck -30.9185 -11.0173 15.1911
head -8.78995 -8.3387 4.85665
rclavicle 5.08889e-014 -3.18055e-014
rhumerus 59.305 8.17569 -39.3524
rradius 22.4513
rwrist -10.2041
rhand -35.0263 -9.2355
rfingers 7.12502
rthumb -8.17014 -39.0575
lclavicle 5.08889e-014 -3.18055e-014
lhumerus -11.3589 -29.0204 87.142
lradius 40.485
lwrist 30.5016
lhand -11.6395 -14.41
lfingers 7.12502
lthumb 14.4044 15.0702
rfemur -56.8571 -13.9213 16.0596
rtibia 59.7841
rfoot -18.4075 -9.43061
rtoes 0.316067
lfemur -52.1909 -4.66845 -33.3301
ltibia 38.5631
lfoot 0.908168 -17.278
ltoes -9.60462
343
root 22.5487 16.7652 -1.96012 363.984 -62.3874 21.069
lowerback 69.9473 -1.63106 11.0765
upperback 14.891 3.01691 -0.708917
thorax -3.64623 1.28111 -6.43508
lowerneck -3.81122 -10.093 6.9396
upperneck -30.8379 -11.1349 15.2335
head -8.62597 -8.36814 4.85935
rclavicle 4.45278e-014 -8.26944e-014
rhumerus 59.0955 9.23238 -38.5123
rradius 23.0027
rwrist -11.0129
rhand -34.7132 -9.23932
rfingers 7.12502
rthumb -7.86795 -39.0729
lclavicle 4.45278e-014 -8.26944e-014
lhumerus -10.8416 -29.0153 87.0924
lradius 40.0422
lwrist 30.472
lhand -11.7742 -14.3226
lfingers 7.12502
lthumb 14.2746 15.1668
rfemur -55.9302 -13.6785 16.1995
rtibia 59.2172
rfoot -18.2902 -9.52126
rtoes 0.0752232
lfemur -51.4492 -4.33526 -33.1095
ltibia 38.2028
lfoot 0.975188 -17.3615
ltoes -9.46006
344
root 22.5352 16.7955 -1.95744 364.078 -62.5242 20.4142
lowerback 69.6012 -1.40368 10.9496
upperback 15.1051 3.10198 -0.589191
thorax -3.43208 1.30462 -6.28944
lowerneck -4.27798 -10.1095 6.6537
upperneck -30.7712 -11.2451 15.3011
head -8.48177 -8.39219 4.88579
rclavicle -6.36111e-014 1.35174e-014
rhumerus 58.8603 10.5458 -37.1859
rradius 23.7142
rwrist -12.3792
rhand -34.4943 -9.29794
rfingers 7.12502
rthumb -7.65665 -39.1393
lclavicle -6.36111e-014 1.35174e-014
lhumerus -10.4468 -29.0068 87.085
lradius 39.6739
lwrist 30.5031
lhand -11.9072 -14.2093
lfingers 7.12502
lthumb 14.1464 15.2891
rfemur -54.9992 -13.396 16.372
rtibia 58.6551
rfoot -18.1857 -9.59329
rtoes 0.136644
lfemur -50.713 -4.04048 -32.7902
ltibia 37.8636
lfoot 1.02915 -17.3783
ltoes -9.34616
